KRSPY-parametric-WideBlackMinGrade-maxXOPQminYOPQmaxXTRA.ufo
<glyph name="comma" format="2">
  <advance width="1072"/>
  <unicode hex="002C"/>
  <outline>
    <contour>
      <point x="670" y="-93" type="line"/>
      <point x="928" y="0" type="line"/>
      <point x="928" y="2" type="line"/>
      <point x="215" y="2" type="line"/>
      <point x="83" y="2" type="line"/>
      <point x="83" y="0" type="line"/>
      <point x="532" y="0" type="line"/>
      <point x="532" y="-93" type="line"/>
    </contour>
  </outline>
</glyph>
<glyph name="period" format="2">
  <advance width="1164"/>
  <unicode hex="002E"/>
  <outline>
    <contour>
      <point x="911" y="0" type="line" identifier="1m237t4hyw"/>
      <point x="1020" y="1" type="line" identifier="v7N4yg5XNk"/>
      <point x="1020" y="3" type="line"/>
      <point x="252" y="3" type="line" identifier="zfocDyDTCM"/>
      <point x="144" y="2" type="line"/>
      <point x="144" y="0" type="line" identifier="S4rO5KuHiL"/>
    </contour>
  </outline>
</glyph>
<glyph name="four" format="2">
  <advance width="4847"/>
  <unicode hex="0034"/>
  <outline>
    <contour>
      <point x="3489" y="0" type="line"/>
      <point x="4333" y="0" type="line"/>
      <point x="4333" y="800" type="line"/>
      <point x="4730" y="800" type="line"/>
      <point x="4730" y="802" type="line"/>
      <point x="4333" y="802" type="line"/>
      <point x="4333" y="1600" type="line"/>
      <point x="3489" y="1600" type="line"/>
      <point x="3489" y="802" type="line"/>
      <point x="960" y="802" type="line"/>
      <point x="960" y="1100" type="line"/>
      <point x="1423" y="1680" type="line"/>
      <point x="580" y="1680" type="line"/>
      <point x="117" y="1100" type="line"/>
      <point x="117" y="800" type="line"/>
      <point x="3489" y="800" type="line"/>
    </contour>
  </outline>
</glyph>
<glyph name="B" format="2">
  <advance width="5209"/>
  <unicode hex="0042"/>
  <outline>
    <contour>
      <point x="258" y="0" type="line" identifier="hvY9r8RmLr"/>
      <point x="4990" y="0" type="line" identifier="9QFpw7nfq7"/>
      <point x="4990" y="529" type="line" identifier="543PerILpr"/>
      <point x="4644" y="800" type="line" identifier="zhomauHW30"/>
      <point x="4644" y="802" type="line" identifier="870ZhtaozS"/>
      <point x="4928" y="1065" type="line" identifier="eGKH52Jgnk"/>
      <point x="4928" y="1600" type="line" identifier="FaP204GrdB"/>
      <point x="258" y="1600" type="line" identifier="JEev70GAj6"/>
    </contour>
    <contour>
      <point x="1102" y="801" type="line" identifier="By7dfMihfe"/>
      <point x="1102" y="1598" type="line" identifier="1p5hKrurVy"/>
      <point x="4084" y="1598" type="line" identifier="Qby8aMtF2X"/>
      <point x="4084" y="1052" type="line" identifier="9lW01gQyU2"/>
      <point x="3807" y="801" type="line" identifier="xpxyvIzPoc"/>
    </contour>
    <contour>
      <point x="1102" y="2" type="line" identifier="jaMSiLrCua"/>
      <point x="1102" y="799" type="line" identifier="XSrxNd2axx"/>
      <point x="3808" y="799" type="line" identifier="VyYlzRh5nq"/>
      <point x="4146" y="542" type="line" identifier="lsRGatjQja"/>
      <point x="4146" y="2" type="line" identifier="xhlDJ3CjD5"/>
    </contour>
  </outline>
</glyph>
<glyph name="K" format="2">
  <advance width="5209"/>
  <unicode hex="004B"/>
  <outline>
    <contour>
      <point x="1102" y="0" type="line" identifier="wmNm7XZsaF"/>
      <point x="1102" y="799" type="line" identifier="O22liaP9Qk"/>
      <point x="3856" y="799" type="line" identifier="ELFBWIb1vd"/>
      <point x="4146" y="560" type="line" identifier="DzXo67YEfw"/>
      <point x="4146" y="0" type="line" identifier="aKpYWD78l2"/>
      <point x="4990" y="0" type="line" identifier="ChS7KlqGi6"/>
      <point x="4990" y="521" type="line" identifier="sWLgkU8Vey"/>
      <point x="4632" y="799" type="line" identifier="Of0iQc0wBG"/>
      <point x="4632" y="801" type="line" identifier="j4jnmtDJYB"/>
      <point x="4987" y="1065" type="line" identifier="dWvz0rZ5Hv"/>
      <point x="4987" y="1600" type="line" identifier="dMJ1ywOKQQ"/>
      <point x="4143" y="1600" type="line" identifier="08OWjR2YBJ"/>
      <point x="4143" y="1026" type="line" identifier="F62GU90G6q"/>
      <point x="3856" y="801" type="line" identifier="g4YLdZEoM3"/>
      <point x="1102" y="801" type="line" identifier="uZuki3Isec"/>
      <point x="1102" y="1600" type="line" identifier="nRfcNgqJ4H"/>
      <point x="258" y="1600" type="line" identifier="3XJlWt89ad"/>
      <point x="258" y="0" type="line" identifier="wdbO8kCovY"/>
    </contour>
  </outline>
</glyph>
<glyph name="M" format="2">
  <advance width="6273"/>
  <unicode hex="004D"/>
  <outline>
    <contour>
      <point x="2609" y="22" type="line" identifier="0Dn4Xpf57M"/>
      <point x="1515" y="1598" type="line"/>
      <point x="1142" y="1598" type="line"/>
      <point x="1142" y="0" type="line"/>
      <point x="306" y="0" type="line"/>
      <point x="306" y="1600" type="line"/>
      <point x="1833" y="1600" type="line"/>
      <point x="2925" y="24" type="line"/>
      <point x="3347" y="24" type="line" identifier="9aKZPM0HPh"/>
      <point x="4437" y="1600" type="line"/>
      <point x="5965" y="1600" type="line"/>
      <point x="5965" y="0" type="line"/>
      <point x="5129" y="0" type="line"/>
      <point x="5129" y="1598" type="line"/>
      <point x="4756" y="1598" type="line"/>
      <point x="3664" y="22" type="line" identifier="spdoeeCFft"/>
    </contour>
  </outline>
</glyph>
<glyph name="S" format="2">
  <advance width="4809"/>
  <unicode hex="0053"/>
  <outline>
    <contour>
      <point x="211" y="0" type="line" identifier="09VlJ0BjUX"/>
      <point x="4600" y="0" type="line" identifier="EagWihqFM8"/>
      <point x="4600" y="801" type="line" identifier="KfNuQA7eZe"/>
      <point x="1053" y="801" type="line" identifier="At364YZFEy"/>
      <point x="1053" y="1265" type="line"/>
      <point x="1419" y="1598" type="line"/>
      <point x="3756" y="1598" type="line" identifier="3ZUkG35meB"/>
      <point x="3756" y="1161" type="line" identifier="DTOJhFIl15"/>
      <point x="4600" y="1161" type="line" identifier="9KDcrfQ5Ui"/>
      <point x="4600" y="1600" type="line" identifier="SaF9ojRFrW"/>
      <point x="599" y="1600" type="line"/>
      <point x="210" y="1270" type="line"/>
      <point x="210" y="799" type="line" identifier="3sQ8t8BZ6b"/>
      <point x="3756" y="799" type="line" identifier="yiV6OCBLHg"/>
      <point x="3756" y="2" type="line" identifier="9kdl9SYsn8"/>
      <point x="1055" y="2" type="line" identifier="yZDWuX8LLe"/>
      <point x="1055" y="445" type="line" identifier="jYb9001DTm"/>
      <point x="211" y="445" type="line" identifier="ho4DrS0rdW"/>
    </contour>
  </outline>
</glyph>
<glyph name="U" format="2">
  <advance width="4808"/>
  <unicode hex="0055"/>
  <outline>
    <contour>
      <point x="3779" y="1600" type="line" smooth="yes"/>
      <point x="3779" y="2" type="line"/>
      <point x="1457" y="2" type="line" smooth="yes"/>
      <point x="988" y="483" type="line" smooth="yes"/>
      <point x="988" y="1600" type="line"/>
      <point x="144" y="1600" type="line" smooth="yes"/>
      <point x="144" y="480" type="line" smooth="yes"/>
      <point x="625" y="0" type="line" smooth="yes"/>
      <point x="4624" y="0" type="line" smooth="yes"/>
      <point x="4624" y="1600" type="line" smooth="yes"/>
    </contour>
  </outline>
</glyph>
<glyph name="W" format="2">
  <advance width="6772"/>
  <unicode hex="0057"/>
  <outline>
    <contour>
      <point x="1199" y="1600" type="line" smooth="yes" identifier="12Pyby1xY2"/>
      <point x="355" y="1600" type="line" smooth="yes" identifier="5LJg4ajoG6"/>
      <point x="355" y="0" type="line" smooth="yes" identifier="ZqTZqAY3uY"/>
      <point x="3081" y="0" type="line" smooth="yes" identifier="rCeQLyjlsN"/>
      <point x="3268" y="346" type="line"/>
      <point x="3278" y="346" type="line"/>
      <point x="3278" y="0" type="line" smooth="yes" identifier="Pkl7cZ37MU"/>
      <point x="5986" y="0" type="line" smooth="yes" identifier="R4lklfJsHA"/>
      <point x="6463" y="485" type="line" smooth="yes" identifier="7g7f8Wu7K4"/>
      <point x="6463" y="1600" type="line" smooth="yes" identifier="RTOJW56qXy"/>
      <point x="5619" y="1600" type="line" identifier="JfSFAkWGZC"/>
      <point x="5619" y="484" type="line" smooth="yes" identifier="WWvGwSpq0g"/>
      <point x="5152" y="2" type="line" smooth="yes" identifier="oee4nqI8Wl"/>
      <point x="3832" y="2" type="line" identifier="Ljn2lpvpG8"/>
      <point x="3832" y="328" type="line"/>
      <point x="3832" y="1586" type="line" smooth="yes"/>
      <point x="2988" y="1586" type="line"/>
      <point x="2988" y="414" type="line"/>
      <point x="2988" y="396" type="line"/>
      <point x="2804" y="2" type="line" identifier="GlWB6PG54Z"/>
      <point x="1199" y="2" type="line" identifier="iqeTRv7HXg"/>
    </contour>
  </outline>
</glyph>
<glyph name="Z" format="2">
  <advance width="4848"/>
  <unicode hex="005A"/>
  <outline>
    <contour>
      <point x="206" y="0" type="line"/>
      <point x="4642" y="0" type="line" identifier="pzdvPTirLJ"/>
      <point x="4642" y="412" type="line" identifier="91SxUS0iwG"/>
      <point x="3797" y="412" type="line"/>
      <point x="3797" y="2" type="line"/>
      <point x="1051" y="2" type="line"/>
      <point x="1051" y="419" type="line"/>
      <point x="4621" y="1285" type="line" identifier="yyb1NCCI5w"/>
      <point x="4621" y="1600" type="line" identifier="5FogYRSgkk"/>
      <point x="225" y="1600" type="line" identifier="svlFvrau4c"/>
      <point x="225" y="1255" type="line" identifier="LQ9fBsTy9K"/>
      <point x="1062" y="1255" type="line"/>
      <point x="1062" y="1598" type="line"/>
      <point x="3777" y="1598" type="line"/>
      <point x="3777" y="1371" type="line"/>
      <point x="206" y="529" type="line" identifier="teVKnpBcVb"/>
    </contour>
  </outline>
</glyph>
<glyph name="B.narrow" format="2">
  <advance width="5336"/>
  <outline>
    <contour>
      <point x="326" y="0" type="line" identifier="hvY9r8RmLr"/>
      <point x="5057" y="0" type="line" identifier="9QFpw7nfq7"/>
      <point x="5057" y="564" type="line" identifier="543PerILpr"/>
      <point x="4708" y="838" type="line" identifier="870ZhtaozS"/>
      <point x="4995" y="888" type="line" identifier="eGKH52Jgnk"/>
      <point x="4995" y="1600" type="line" identifier="FaP204GrdB"/>
      <point x="326" y="1600" type="line" identifier="JEev70GAj6"/>
    </contour>
    <contour>
      <point x="1170" y="635" type="line" identifier="By7dfMihfe"/>
      <point x="1170" y="1598" type="line" identifier="1p5hKrurVy"/>
      <point x="4152" y="1598" type="line" identifier="Qby8aMtF2X"/>
      <point x="4152" y="835" type="line" identifier="9lW01gQyU2"/>
    </contour>
    <contour>
      <point x="1170" y="2" type="line" identifier="jaMSiLrCua"/>
      <point x="1170" y="633" type="line" identifier="XSrxNd2axx"/>
      <point x="3874" y="812" type="line" identifier="VyYlzRh5nq"/>
      <point x="4214" y="545" type="line" identifier="lsRGatjQja"/>
      <point x="4214" y="2" type="line" identifier="xhlDJ3CjD5"/>
    </contour>
  </outline>
</glyph>
<glyph name="C.wide" format="2">
  <advance width="5087"/>
  <outline>
    <contour>
      <point x="296" y="0" type="line" identifier="7lPhzTnk2Z"/>
      <point x="4882" y="0" type="line" identifier="qJVLZGnkwh"/>
      <point x="4882" y="2" type="line" identifier="Y750RHTvDj"/>
      <point x="1139" y="2" type="line" identifier="L2LsGnXiZ2"/>
      <point x="1139" y="1118" type="line" identifier="sUWsr03vF4"/>
      <point x="1606" y="1598" type="line" identifier="dbOUe6OhxL"/>
      <point x="4881" y="1598" type="line" identifier="5BjRbcud80"/>
      <point x="4881" y="1600" type="line" identifier="9eJelv8BOw"/>
      <point x="768" y="1600" type="line" identifier="lfZev3ICaC"/>
      <point x="296" y="1123" type="line" identifier="V1EWIdPahq"/>
    </contour>
  </outline>
</glyph>
<glyph name="G.wide" format="2">
  <advance width="4869"/>
  <outline>
    <contour>
      <point x="144" y="0" type="line" identifier="7lPhzTnk2Z"/>
      <point x="4676" y="0" type="line" identifier="qJVLZGnkwh"/>
      <point x="4676" y="798" type="line" identifier="uek1NNj7De"/>
      <point x="2141" y="798" type="line" identifier="qcvimxjndX"/>
      <point x="2141" y="796" type="line" identifier="EARaY3Su65"/>
      <point x="3833" y="796" type="line" identifier="4m6dHLVhZq"/>
      <point x="3833" y="2" type="line" identifier="Y750RHTvDj"/>
      <point x="988" y="2" type="line" identifier="L2LsGnXiZ2"/>
      <point x="988" y="1118" type="line" identifier="sUWsr03vF4"/>
      <point x="1453" y="1598" type="line" identifier="dbOUe6OhxL"/>
      <point x="4675" y="1598" type="line" identifier="5BjRbcud80"/>
      <point x="4675" y="1600" type="line" identifier="9eJelv8BOw"/>
      <point x="612" y="1600" type="line" identifier="lfZev3ICaC"/>
      <point x="144" y="1120" type="line" identifier="V1EWIdPahq"/>
    </contour>
  </outline>
</glyph>
<glyph name="I.narrow" format="2">
  <advance width="1409"/>
  <outline>
    <contour>
      <point x="1127" y="2" type="line" identifier="1m237t4hyw"/>
      <point x="1127" y="1600" type="line" identifier="v7N4yg5XNk"/>
      <point x="282" y="1600" type="line" identifier="zfocDyDTCM"/>
      <point x="282" y="2" type="line" identifier="S4rO5KuHiL"/>
    </contour>
  </outline>
</glyph>
<glyph name="K.alt" format="2">
  <advance width="5151"/>
  <outline>
    <contour>
      <point x="1053" y="0" type="line" identifier="wmNm7XZsaF"/>
      <point x="1053" y="799" type="line" identifier="O22liaP9Qk"/>
      <point x="3720" y="799" type="line" identifier="ELFBWIb1vd"/>
      <point x="4010" y="794" type="line" identifier="DzXo67YEfw"/>
      <point x="4010" y="0" type="line" identifier="aKpYWD78l2"/>
      <point x="4853" y="0" type="line" identifier="ChS7KlqGi6"/>
      <point x="4853" y="786" type="line" identifier="sWLgkU8Vey"/>
      <point x="4343" y="799" type="line" identifier="Of0iQc0wBG"/>
      <point x="4622" y="1600" type="line" identifier="dMJ1ywOKQQ"/>
      <point x="3764" y="1600" type="line" identifier="08OWjR2YBJ"/>
      <point x="3499" y="801" type="line" identifier="g4YLdZEoM3"/>
      <point x="1053" y="801" type="line" identifier="uZuki3Isec"/>
      <point x="1053" y="1600" type="line" identifier="nRfcNgqJ4H"/>
      <point x="209" y="1600" type="line" identifier="3XJlWt89ad"/>
      <point x="209" y="0" type="line" identifier="wdbO8kCovY"/>
    </contour>
  </outline>
</glyph>
<glyph name="K.narrow" format="2">
  <advance width="5270"/>
  <outline>
    <contour>
      <point x="1166" y="0" type="line"/>
      <point x="1166" y="683" type="line"/>
      <point x="3841" y="826" type="line"/>
      <point x="4153" y="0" type="line"/>
      <point x="4994" y="0" type="line"/>
      <point x="4644" y="820" type="line"/>
      <point x="4932" y="837" type="line"/>
      <point x="4932" y="1600" type="line"/>
      <point x="4088" y="1600" type="line"/>
      <point x="4088" y="844" type="line"/>
      <point x="1166" y="685" type="line"/>
      <point x="1166" y="1600" type="line"/>
      <point x="322" y="1600" type="line"/>
      <point x="322" y="0" type="line"/>
    </contour>
  </outline>
</glyph>
<glyph name="L.wide" format="2">
  <advance width="4397"/>
  <outline>
    <contour>
      <point x="221" y="0" type="line" identifier="XkJNfQlnnt"/>
      <point x="4225" y="0" type="line" identifier="82EXZEgt46"/>
      <point x="4225" y="2" type="line" identifier="cqpSxwFiM3"/>
      <point x="1064" y="2" type="line" identifier="MbxRZRd8vz"/>
      <point x="1064" y="1600" type="line" identifier="lYiaKSKITt"/>
      <point x="221" y="1600" type="line" identifier="XFf4mMUzYo"/>
    </contour>
  </outline>
</glyph>
<glyph name="M.narrow" format="2">
  <advance width="6772"/>
  <outline>
    <contour>
      <point x="5618" y="0" type="line" smooth="yes" identifier="12Pyby1xY2"/>
      <point x="6463" y="0" type="line" smooth="yes" identifier="5LJg4ajoG6"/>
      <point x="6463" y="1599" type="line" smooth="yes" identifier="ZqTZqAY3uY"/>
      <point x="831" y="1599" type="line" smooth="yes" identifier="R4lklfJsHA"/>
      <point x="355" y="1116" type="line" smooth="yes" identifier="7g7f8Wu7K4"/>
      <point x="355" y="0" type="line" smooth="yes" identifier="RTOJW56qXy"/>
      <point x="1199" y="0" type="line" identifier="JfSFAkWGZC"/>
      <point x="1199" y="1117" type="line" smooth="yes" identifier="WWvGwSpq0g"/>
      <point x="1666" y="1597" type="line" smooth="yes" identifier="oee4nqI8Wl"/>
      <point x="2985" y="1597" type="line" identifier="Ljn2lpvpG8"/>
      <point x="2985" y="0" type="line" smooth="yes"/>
      <point x="3829" y="0" type="line"/>
      <point x="3829" y="1597" type="line" identifier="GlWB6PG54Z"/>
      <point x="5618" y="1597" type="line" identifier="iqeTRv7HXg"/>
    </contour>
  </outline>
</glyph>
<glyph name="N.narrow" format="2">
  <advance width="5222"/>
  <outline>
    <contour>
      <point x="381" y="0" type="line" smooth="yes"/>
      <point x="1225" y="0" type="line"/>
      <point x="1225" y="1191" type="line"/>
      <point x="1409" y="1598" type="line"/>
      <point x="3996" y="1598" type="line"/>
      <point x="3996" y="0" type="line" smooth="yes"/>
      <point x="4841" y="0" type="line" smooth="yes"/>
      <point x="4841" y="1600" type="line" smooth="yes"/>
      <point x="1286" y="1600" type="line" smooth="yes"/>
      <point x="1146" y="1324" type="line"/>
      <point x="1083" y="1324" type="line"/>
      <point x="1083" y="1600" type="line"/>
      <point x="381" y="1600" type="line"/>
    </contour>
  </outline>
</glyph>
<glyph name="N.wide" format="2">
  <advance width="4990"/>
  <outline>
    <contour>
      <point x="304" y="0" type="line" identifier="CkwYPPvJLv"/>
      <point x="1148" y="0" type="line" identifier="oHTJsN7drZ"/>
      <point x="1148" y="1598" type="line" identifier="wfBbYd10Pm"/>
      <point x="1373" y="1598" type="line" identifier="MEnBDHq6zU"/>
      <point x="3386" y="0" type="line" identifier="3Nbopwznvn"/>
      <point x="4686" y="0" type="line" identifier="uKfuudIUvA"/>
      <point x="4686" y="1600" type="line" identifier="XRdLFXiM4t"/>
      <point x="3842" y="1600" type="line" identifier="MUSJPjCIXg"/>
      <point x="3842" y="7" type="line" identifier="VILP20cFmq"/>
      <point x="3614" y="7" type="line" identifier="z5b04GDwRN"/>
      <point x="1603" y="1600" type="line" identifier="LL64NQ6WBE"/>
      <point x="304" y="1600" type="line" identifier="dzUaaP1sjt"/>
    </contour>
  </outline>
</glyph>
<glyph name="R.alt" format="2">
  <advance width="5339"/>
  <outline>
    <contour>
      <point x="1140" y="802" type="line"/>
      <point x="1140" y="1599" type="line"/>
      <point x="4193" y="1599" type="line"/>
      <point x="4193" y="802" type="line"/>
    </contour>
    <contour>
      <point x="5039" y="1" type="line"/>
      <point x="4389" y="800" type="line"/>
      <point x="5036" y="800" type="line"/>
      <point x="5036" y="1601" type="line"/>
      <point x="296" y="1601" type="line"/>
      <point x="296" y="1" type="line"/>
      <point x="1140" y="1" type="line"/>
      <point x="1140" y="800" type="line"/>
      <point x="3554" y="800" type="line"/>
      <point x="4202" y="1" type="line"/>
    </contour>
  </outline>
</glyph>
<glyph name="S.alt" format="2">
  <advance width="4797"/>
  <outline>
    <contour>
      <point x="80" y="0" type="line" identifier="09VlJ0BjUX"/>
      <point x="4718" y="0" type="line" identifier="EagWihqFM8"/>
      <point x="4718" y="801" type="line" identifier="KfNuQA7eZe"/>
      <point x="913" y="801" type="line" identifier="At364YZFEy"/>
      <point x="913" y="1279" type="line"/>
      <point x="1251" y="1598" type="line"/>
      <point x="3874" y="1598" type="line" identifier="3ZUkG35meB"/>
      <point x="3874" y="1358" type="line" identifier="DTOJhFIl15"/>
      <point x="4718" y="1358" type="line" identifier="9KDcrfQ5Ui"/>
      <point x="4718" y="1600" type="line" identifier="SaF9ojRFrW"/>
      <point x="439" y="1600" type="line"/>
      <point x="78" y="1284" type="line"/>
      <point x="78" y="799" type="line" identifier="3sQ8t8BZ6b"/>
      <point x="3874" y="799" type="line" identifier="yiV6OCBLHg"/>
      <point x="3874" y="2" type="line" identifier="9kdl9SYsn8"/>
      <point x="922" y="2" type="line" identifier="yZDWuX8LLe"/>
      <point x="922" y="243" type="line" identifier="jYb9001DTm"/>
      <point x="80" y="243" type="line" identifier="ho4DrS0rdW"/>
    </contour>
  </outline>
</glyph>
<glyph name="Y.alt" format="2">
  <advance width="4990"/>
  <outline>
    <contour>
      <point x="213" y="2" type="line"/>
      <point x="213" y="0" type="line"/>
      <point x="4679" y="0" type="line" identifier="oOtn61SmRY"/>
      <point x="4679" y="1600" type="line" identifier="8OglXgblhr"/>
      <point x="3835" y="1600" type="line" identifier="db0bPhBdaU"/>
      <point x="3835" y="824" type="line" identifier="MTAeavIVWY"/>
      <point x="1052" y="824" type="line" identifier="lggLiivmLt"/>
      <point x="1052" y="1600" type="line" identifier="UPaHY3UudR"/>
      <point x="208" y="1600" type="line" identifier="ZnCDQVdtyD"/>
      <point x="208" y="822" type="line" identifier="uqAJBjDIOT"/>
      <point x="3835" y="822" type="line" identifier="7JgTtdb0jg"/>
      <point x="3835" y="2" type="line"/>
    </contour>
  </outline>
</glyph>
<glyph name="Z.wide" format="2">
  <advance width="4869"/>
  <outline>
    <contour>
      <point x="209" y="0" type="line"/>
      <point x="4662" y="0" type="line" identifier="pzdvPTirLJ"/>
      <point x="4662" y="2" type="line"/>
      <point x="1144" y="2" type="line"/>
      <point x="1144" y="295" type="line"/>
      <point x="4647" y="1182" type="line" identifier="yyb1NCCI5w"/>
      <point x="4647" y="1600" type="line" identifier="5FogYRSgkk"/>
      <point x="224" y="1600" type="line" identifier="svlFvrau4c"/>
      <point x="224" y="1598" type="line"/>
      <point x="3613" y="1598" type="line"/>
      <point x="3613" y="1474" type="line"/>
      <point x="209" y="596" type="line" identifier="teVKnpBcVb"/>
    </contour>
  </outline>
</glyph>
<glyph name="five.wide" format="2">
  <advance width="5172"/>
  <outline>
    <contour>
      <point x="225" y="0" type="line" identifier="09VlJ0BjUX"/>
      <point x="4949" y="0" type="line" identifier="EagWihqFM8"/>
      <point x="4949" y="651" type="line" identifier="KfNuQA7eZe"/>
      <point x="1067" y="819" type="line" identifier="At364YZFEy"/>
      <point x="1067" y="1598" type="line" identifier="BcuLfvaQKC"/>
      <point x="4949" y="1598" type="line" identifier="3ZUkG35meB"/>
      <point x="4949" y="1600" type="line" identifier="SaF9ojRFrW"/>
      <point x="223" y="1600" type="line" identifier="F4sQEYelA8"/>
      <point x="223" y="851" type="line" identifier="3sQ8t8BZ6b"/>
      <point x="4105" y="682" type="line" identifier="yiV6OCBLHg"/>
      <point x="4105" y="2" type="line" identifier="9kdl9SYsn8"/>
      <point x="225" y="2" type="line" identifier="yZDWuX8LLe"/>
    </contour>
  </outline>
</glyph>
<glyph name="one.narrow" format="2">
  <advance width="2905"/>
  <outline>
    <contour>
      <point x="2720" y="0" type="line" identifier="5nmxQXofSG"/>
      <point x="2720" y="1600" type="line" identifier="4rjIeWbSbx"/>
      <point x="117" y="1600" type="line"/>
      <point x="117" y="1598" type="line"/>
      <point x="1877" y="1598" type="line"/>
      <point x="1877" y="0" type="line"/>
    </contour>
  </outline>
</glyph>
<glyph name="six.wide" format="2">
  <advance width="5334"/>
  <outline>
    <contour>
      <point x="301" y="0" type="line" identifier="uiw6aBUf4P"/>
      <point x="4880" y="0" type="line" identifier="jtYkxiUX6G"/>
      <point x="4880" y="801" type="line" identifier="2G5L37c87I"/>
      <point x="1145" y="801" type="line"/>
      <point x="1145" y="1265" type="line"/>
      <point x="1602" y="1598" type="line"/>
      <point x="4879" y="1598" type="line"/>
      <point x="4879" y="1600" type="line" identifier="oGvEEuxnYv"/>
      <point x="759" y="1600" type="line" identifier="xR3pEHbMJx"/>
      <point x="301" y="1266" type="line" identifier="KnMArb0tv8"/>
    </contour>
    <contour>
      <point x="4035" y="799" type="line"/>
      <point x="4035" y="2" type="line"/>
      <point x="1145" y="2" type="line"/>
      <point x="1145" y="799" type="line"/>
    </contour>
  </outline>
</glyph>
<glyph name="three.wide" format="2">
  <advance width="5010"/>
  <outline>
    <contour>
      <point x="186" y="0" type="line" identifier="O9abUc1nmN"/>
      <point x="4757" y="0" type="line" identifier="kMJYMTfXCq"/>
      <point x="4757" y="802" type="line" identifier="su2XmdS8e8"/>
      <point x="4264" y="802" type="line" identifier="JQaOzDQqlF"/>
      <point x="4264" y="803" type="line"/>
      <point x="4745" y="1105" type="line" identifier="S91TzLL02W"/>
      <point x="4745" y="1600" type="line" identifier="xg8x2Ki40p"/>
      <point x="207" y="1600" type="line" identifier="pE1XSRiy68"/>
      <point x="207" y="1598" type="line" identifier="7ogBYufWpl"/>
      <point x="3717" y="1598" type="line" identifier="RHLvSX2Jv6"/>
      <point x="3717" y="937" type="line" identifier="YUjTrmoWd9"/>
      <point x="3430" y="804" type="line"/>
      <point x="3430" y="802" type="line" identifier="iic1IBkDqp"/>
      <point x="963" y="802" type="line" identifier="lRLJEhXMlO"/>
      <point x="963" y="800" type="line" identifier="8aKgEELrVU"/>
      <point x="3912" y="800" type="line" identifier="Dm8zjmbhNr"/>
      <point x="3912" y="2" type="line" identifier="xv9CFHiFgB"/>
      <point x="186" y="2" type="line" identifier="YajKQV3MHP"/>
    </contour>
  </outline>
</glyph>
